<mxfile host="app.diagrams.net" modified="2023-03-31T17:14:43.102Z" agent="Mozilla/5.0 (Windows NT 10.0; Win64; x64) AppleWebKit/537.36 (KHTML, like Gecko) Chrome/111.0.0.0 Safari/537.36" etag="oYqjxUl1B6hatmwoozEX" version="21.1.2" type="github">
  <diagram id="C5RBs43oDa-KdzZeNtuy" name="Page-1">
    <mxGraphModel dx="1050" dy="541" grid="1" gridSize="10" guides="1" tooltips="1" connect="1" arrows="1" fold="1" page="1" pageScale="1" pageWidth="827" pageHeight="1169" math="0" shadow="0">
      <root>
        <mxCell id="WIyWlLk6GJQsqaUBKTNV-0" />
        <mxCell id="WIyWlLk6GJQsqaUBKTNV-1" parent="WIyWlLk6GJQsqaUBKTNV-0" />
        <mxCell id="WIyWlLk6GJQsqaUBKTNV-3" value="&lt;h2&gt;&lt;br&gt;&lt;/h2&gt;&lt;h2&gt;&lt;br&gt;&lt;/h2&gt;&lt;h1&gt;&lt;i&gt;Maya&#39;s home&lt;/i&gt;&lt;/h1&gt;" style="rounded=1;whiteSpace=wrap;html=1;fontSize=12;glass=0;strokeWidth=1;shadow=0;fillColor=#dae8fc;strokeColor=#6c8ebf;" parent="WIyWlLk6GJQsqaUBKTNV-1" vertex="1">
          <mxGeometry x="20" y="20" width="150" height="210" as="geometry" />
        </mxCell>
        <mxCell id="inLLBlIZgluMOFH_YsyN-0" value="&lt;h1&gt;SQL&lt;/h1&gt;" style="shape=cylinder3;whiteSpace=wrap;html=1;boundedLbl=1;backgroundOutline=1;size=15;fillColor=#6a00ff;fontColor=#ffffff;strokeColor=#3700CC;" vertex="1" parent="WIyWlLk6GJQsqaUBKTNV-1">
          <mxGeometry x="300" y="340" width="100" height="140" as="geometry" />
        </mxCell>
        <mxCell id="inLLBlIZgluMOFH_YsyN-2" value="&lt;h1&gt;BRAIN&lt;/h1&gt;" style="ellipse;shape=cloud;whiteSpace=wrap;html=1;fillColor=#b1ddf0;strokeColor=#10739e;" vertex="1" parent="WIyWlLk6GJQsqaUBKTNV-1">
          <mxGeometry x="590" y="30" width="220" height="160" as="geometry" />
        </mxCell>
        <mxCell id="inLLBlIZgluMOFH_YsyN-6" value="" style="outlineConnect=0;dashed=0;verticalLabelPosition=bottom;verticalAlign=top;align=center;html=1;shape=mxgraph.aws3.workspaces;fillColor=#D16A28;gradientColor=#F58435;gradientDirection=north;" vertex="1" parent="WIyWlLk6GJQsqaUBKTNV-1">
          <mxGeometry x="53.75" y="30" width="82.5" height="94.5" as="geometry" />
        </mxCell>
        <mxCell id="inLLBlIZgluMOFH_YsyN-8" value="" style="outlineConnect=0;dashed=0;verticalLabelPosition=bottom;verticalAlign=top;align=center;html=1;shape=mxgraph.aws3.cloud_2;fillColor=#F58534;gradientColor=none;" vertex="1" parent="WIyWlLk6GJQsqaUBKTNV-1">
          <mxGeometry x="640" y="222" width="120" height="100" as="geometry" />
        </mxCell>
        <mxCell id="inLLBlIZgluMOFH_YsyN-37" style="edgeStyle=orthogonalEdgeStyle;rounded=0;orthogonalLoop=1;jettySize=auto;html=1;entryX=0.995;entryY=0.668;entryDx=0;entryDy=0;entryPerimeter=0;" edge="1" parent="WIyWlLk6GJQsqaUBKTNV-1" source="inLLBlIZgluMOFH_YsyN-9" target="WIyWlLk6GJQsqaUBKTNV-3">
          <mxGeometry relative="1" as="geometry">
            <mxPoint x="200" y="161" as="targetPoint" />
          </mxGeometry>
        </mxCell>
        <mxCell id="inLLBlIZgluMOFH_YsyN-9" value="&lt;h2&gt;&amp;nbsp;HANDLER&lt;/h2&gt;" style="html=1;whiteSpace=wrap;aspect=fixed;shape=isoRectangle;fillColor=#b1ddf0;strokeColor=#10739e;" vertex="1" parent="WIyWlLk6GJQsqaUBKTNV-1">
          <mxGeometry x="290" y="100" width="203.33" height="122" as="geometry" />
        </mxCell>
        <mxCell id="inLLBlIZgluMOFH_YsyN-31" value="" style="endArrow=classic;html=1;rounded=0;exitX=0.255;exitY=0.819;exitDx=0;exitDy=0;exitPerimeter=0;" edge="1" parent="WIyWlLk6GJQsqaUBKTNV-1" source="inLLBlIZgluMOFH_YsyN-2">
          <mxGeometry relative="1" as="geometry">
            <mxPoint x="350" y="240" as="sourcePoint" />
            <mxPoint x="490" y="160" as="targetPoint" />
            <Array as="points" />
          </mxGeometry>
        </mxCell>
        <mxCell id="inLLBlIZgluMOFH_YsyN-32" value="" style="shape=message;html=1;outlineConnect=0;fillColor=#d5e8d4;strokeColor=#82b366;" vertex="1" parent="inLLBlIZgluMOFH_YsyN-31">
          <mxGeometry width="20" height="14" relative="1" as="geometry">
            <mxPoint x="-10" y="-7" as="offset" />
          </mxGeometry>
        </mxCell>
        <mxCell id="inLLBlIZgluMOFH_YsyN-36" value="" style="endArrow=classic;startArrow=classic;html=1;rounded=0;exitX=0.496;exitY=0.998;exitDx=0;exitDy=0;exitPerimeter=0;" edge="1" parent="WIyWlLk6GJQsqaUBKTNV-1" source="inLLBlIZgluMOFH_YsyN-9" target="inLLBlIZgluMOFH_YsyN-8">
          <mxGeometry width="50" height="50" relative="1" as="geometry">
            <mxPoint x="380" y="272" as="sourcePoint" />
            <mxPoint x="430" y="220" as="targetPoint" />
            <Array as="points">
              <mxPoint x="391" y="280" />
              <mxPoint x="620" y="280" />
            </Array>
          </mxGeometry>
        </mxCell>
        <mxCell id="inLLBlIZgluMOFH_YsyN-40" value="" style="endArrow=classic;startArrow=classic;html=1;rounded=0;" edge="1" parent="WIyWlLk6GJQsqaUBKTNV-1" source="inLLBlIZgluMOFH_YsyN-0">
          <mxGeometry width="50" height="50" relative="1" as="geometry">
            <mxPoint x="380" y="250" as="sourcePoint" />
            <mxPoint x="350" y="200" as="targetPoint" />
          </mxGeometry>
        </mxCell>
        <mxCell id="inLLBlIZgluMOFH_YsyN-41" value="&lt;h3&gt;&lt;b&gt;Text to speech&lt;/b&gt;&lt;/h3&gt;" style="text;html=1;align=center;verticalAlign=middle;resizable=0;points=[];autosize=1;strokeColor=none;fillColor=none;" vertex="1" parent="WIyWlLk6GJQsqaUBKTNV-1">
          <mxGeometry x="640" y="180" width="120" height="60" as="geometry" />
        </mxCell>
        <mxCell id="inLLBlIZgluMOFH_YsyN-42" value="&lt;h3&gt;&lt;b&gt;Animations&lt;/b&gt;&lt;/h3&gt;" style="text;html=1;align=center;verticalAlign=middle;resizable=0;points=[];autosize=1;strokeColor=none;fillColor=none;" vertex="1" parent="WIyWlLk6GJQsqaUBKTNV-1">
          <mxGeometry x="395" y="340" width="100" height="60" as="geometry" />
        </mxCell>
        <mxCell id="inLLBlIZgluMOFH_YsyN-43" value="" style="endArrow=classic;html=1;rounded=0;entryX=0.28;entryY=0.144;entryDx=0;entryDy=0;entryPerimeter=0;exitX=1.016;exitY=0.165;exitDx=0;exitDy=0;exitPerimeter=0;" edge="1" parent="WIyWlLk6GJQsqaUBKTNV-1">
          <mxGeometry width="50" height="50" relative="1" as="geometry">
            <mxPoint x="172" y="55" as="sourcePoint" />
            <mxPoint x="652" y="53" as="targetPoint" />
          </mxGeometry>
        </mxCell>
        <mxCell id="inLLBlIZgluMOFH_YsyN-44" value="&lt;b&gt;REQUEST&lt;/b&gt;" style="edgeLabel;html=1;align=center;verticalAlign=middle;resizable=0;points=[];" vertex="1" connectable="0" parent="inLLBlIZgluMOFH_YsyN-43">
          <mxGeometry x="-0.132" relative="1" as="geometry">
            <mxPoint as="offset" />
          </mxGeometry>
        </mxCell>
        <mxCell id="inLLBlIZgluMOFH_YsyN-49" value="&lt;b&gt;JSON : {user id, body}&lt;/b&gt;" style="text;html=1;align=center;verticalAlign=middle;resizable=0;points=[];autosize=1;strokeColor=none;fillColor=none;" vertex="1" parent="WIyWlLk6GJQsqaUBKTNV-1">
          <mxGeometry x="480" y="30" width="150" height="30" as="geometry" />
        </mxCell>
        <mxCell id="inLLBlIZgluMOFH_YsyN-52" value="&lt;b style=&quot;border-color: var(--border-color);&quot;&gt;JSON : {user id, body,img,video}&lt;/b&gt;" style="text;html=1;align=center;verticalAlign=middle;resizable=0;points=[];autosize=1;strokeColor=none;fillColor=none;" vertex="1" parent="WIyWlLk6GJQsqaUBKTNV-1">
          <mxGeometry x="470" y="160" width="210" height="30" as="geometry" />
        </mxCell>
        <mxCell id="inLLBlIZgluMOFH_YsyN-54" value="&lt;b&gt;Response:&lt;br&gt;Voice,text and behavior&lt;br&gt;&lt;/b&gt;" style="text;html=1;align=center;verticalAlign=middle;resizable=0;points=[];autosize=1;strokeColor=none;fillColor=none;" vertex="1" parent="WIyWlLk6GJQsqaUBKTNV-1">
          <mxGeometry x="170" y="160" width="160" height="40" as="geometry" />
        </mxCell>
      </root>
    </mxGraphModel>
  </diagram>
</mxfile>
